<svg width="53" height="53" viewBox="0 0 53 53" fill="none" xmlns="http://www.w3.org/2000/svg">
<path d="M9.21739 40.1435H9.46739V39.8935V22.8551V22.6051H9.21739H8.06522C7.59543 22.6051 7.16304 22.1624 7.16304 21.5444C7.16304 20.9276 7.59559 20.4838 8.06522 20.4838H17.2826C17.7522 20.4838 18.1848 20.9276 18.1848 21.5444C18.1848 22.1624 17.7524 22.6051 17.2826 22.6051H16.1304H15.8804V22.8551V39.8935V40.1435H16.1304H17.2826C17.7524 40.1435 18.1848 40.5862 18.1848 41.2042C18.1848 41.8221 17.7524 42.2648 17.2826 42.2648H8.06522C7.59544 42.2648 7.16304 41.8221 7.16304 41.2042C7.16304 40.5862 7.59543 40.1435 8.06522 40.1435H9.21739ZM14.0761 22.8551V22.6051H13.8261H11.5217H11.2717V22.8551V39.8935V40.1435H11.5217H13.8261H14.0761V39.8935V22.8551ZM23.0435 40.1435H23.2935V39.8935V22.8551V22.6051H23.0435H21.8913C21.4215 22.6051 20.9891 22.1624 20.9891 21.5444C20.9891 20.9276 21.4217 20.4838 21.8913 20.4838H31.1087C31.5783 20.4838 32.0109 20.9276 32.0109 21.5444C32.0109 22.1624 31.5785 22.6051 31.1087 22.6051H29.9565H29.7065V22.8551V39.8935V40.1435H29.9565H31.1087C31.5785 40.1435 32.0109 40.5862 32.0109 41.2042C32.0109 41.8221 31.5785 42.2648 31.1087 42.2648H21.8913C21.4215 42.2648 20.9891 41.8221 20.9891 41.2042C20.9891 40.5862 21.4215 40.1435 21.8913 40.1435H23.0435ZM27.9022 22.8551V22.6051H27.6522H25.3478H25.0978V22.8551V39.8935V40.1435H25.3478H27.6522H27.9022V39.8935V22.8551ZM36.8696 40.1435H37.1196V39.8935V22.8551V22.6051H36.8696H35.7174C35.2476 22.6051 34.8152 22.1624 34.8152 21.5444C34.8152 20.9276 35.2478 20.4838 35.7174 20.4838H44.9348C45.4044 20.4838 45.837 20.9276 45.837 21.5444C45.837 22.1624 45.4046 22.6051 44.9348 22.6051H43.7826H43.5326V22.8551V39.8935V40.1435H43.7826H44.9348C45.4046 40.1435 45.837 40.5862 45.837 41.2042C45.837 41.8221 45.4046 42.2648 44.9348 42.2648H35.7174C35.2476 42.2648 34.8152 41.8221 34.8152 41.2042C34.8152 40.5862 35.2476 40.1435 35.7174 40.1435H36.8696ZM41.7283 22.8551V22.6051H41.4783H39.1739H38.9239V22.8551V39.8935V40.1435H39.1739H41.4783H41.7283V39.8935V22.8551ZM45.5581 15.2412H46.4763L45.6848 14.7757L26.6267 3.56704L26.5002 3.49264L26.3736 3.56683L16.8083 9.17116L7.24292 14.7755L6.44807 15.2412H7.3693H45.5581ZM1.15217 52.75C0.68239 52.75 0.25 52.3073 0.25 51.6894C0.25 51.0714 0.682391 50.6287 1.15217 50.6287H51.8478C52.3176 50.6287 52.75 51.0714 52.75 51.6894C52.75 52.3073 52.3176 52.75 51.8478 52.75H1.15217ZM49.2935 46.4468C49.2935 47.0647 48.8611 47.5074 48.3913 47.5074H4.6087C4.13891 47.5074 3.70652 47.0647 3.70652 46.4468C3.70652 45.8288 4.13891 45.3861 4.6087 45.3861H48.3913C48.8611 45.3861 49.2935 45.8288 49.2935 46.4468ZM2.55435 15.1304L26.5 0.294096L50.4457 15.1304V17.3625H2.55435V15.1304Z" fill="#5FD4AF" stroke="black" stroke-width="0.5"/>
</svg>
