<svg width="72" height="72" viewBox="0 0 72 72" fill="none" xmlns="http://www.w3.org/2000/svg">
<circle cx="36" cy="36" r="35.5" fill="white" stroke="black"/>
<path fill-rule="evenodd" clip-rule="evenodd" d="M46.5366 44H26.1308C25.8743 44 25.667 43.7641 25.667 43.4724C25.667 43.1807 25.8743 42.9448 26.1308 42.9448H46.5366C46.793 42.9448 47.0003 43.1807 47.0003 43.4724C47.0003 43.7641 46.793 44 46.5366 44ZM32.6235 38.7244C32.88 38.7244 33.0873 38.9602 33.0873 39.2519C33.0873 39.5437 32.88 39.7795 32.6235 39.7795H28.9134C28.6569 39.7795 28.4496 39.5437 28.4496 39.2519C28.4496 38.9602 28.6569 38.7244 28.9134 38.7244H29.3771V31.8662H28.9134C28.6569 31.8662 28.4496 31.6303 28.4496 31.3386C28.4496 31.0474 28.6569 30.811 28.9134 30.811H32.6235C32.88 30.811 33.0873 31.0474 33.0873 31.3386C33.0873 31.6303 32.88 31.8662 32.6235 31.8662H32.1597V38.7244H32.6235ZM31.2322 31.8662H30.3047V38.7244H31.2322V31.8662ZM38.1887 38.7244C38.4452 38.7244 38.6525 38.9602 38.6525 39.2519C38.6525 39.5437 38.4452 39.7795 38.1887 39.7795H34.4786C34.2221 39.7795 34.0148 39.5437 34.0148 39.2519C34.0148 38.9602 34.2221 38.7244 34.4786 38.7244H34.9424V31.8662H34.4786C34.2221 31.8662 34.0148 31.6303 34.0148 31.3386C34.0148 31.0474 34.2221 30.811 34.4786 30.811H38.1887C38.4452 30.811 38.6525 31.0474 38.6525 31.3386C38.6525 31.6303 38.4452 31.8662 38.1887 31.8662H37.725V38.7244H38.1887ZM36.7974 31.8662H35.8699V38.7244H36.7974V31.8662ZM45.609 41.3622C45.609 41.6539 45.4017 41.8897 45.1453 41.8897H27.5221C27.2656 41.8897 27.0583 41.6539 27.0583 41.3622C27.0583 41.0704 27.2656 40.8346 27.5221 40.8346H45.1453C45.4017 40.8346 45.609 41.0704 45.609 41.3622ZM43.7539 38.7244C44.0104 38.7244 44.2177 38.9602 44.2177 39.2519C44.2177 39.5437 44.0104 39.7795 43.7539 39.7795H40.0438C39.7873 39.7795 39.58 39.5437 39.58 39.2519C39.58 38.9602 39.7873 38.7244 40.0438 38.7244H40.5076V31.8662H40.0438C39.7873 31.8662 39.58 31.6303 39.58 31.3386C39.58 31.0474 39.7873 30.811 40.0438 30.811H43.7539C44.0104 30.811 44.2177 31.0474 44.2177 31.3386C44.2177 31.6303 44.0104 31.8662 43.7539 31.8662H43.2902V38.7244H43.7539ZM42.3626 31.8662H41.4351V38.7244H42.3626V31.8662ZM26.5945 28.7008L36.3337 22.6666L46.0728 28.7008V29.7559H26.5945V28.7008ZM44.0048 28.7008L36.3337 24.1892L28.6333 28.7008H44.0048Z" fill="black"/>
</svg>
