<svg width="72" height="72" viewBox="0 0 72 72" fill="none" xmlns="http://www.w3.org/2000/svg">
<circle cx="36" cy="36" r="35.5" fill="white" stroke="black"/>
<path d="M36.2696 24C36.7921 24 37.7146 24.915 38.5021 26.9225C39.4296 29.2875 39.9396 32.4675 39.9396 35.875C39.9396 39.2825 39.4396 42.4625 38.5021 44.8275C37.7146 46.8275 36.7946 47.75 36.2696 47.75C35.7446 47.75 34.8246 46.835 34.0371 44.8275C33.1121 42.4625 32.5996 39.2825 32.5996 35.875C32.5996 32.4675 33.0996 29.2875 34.0371 26.9225C34.8271 24.9125 35.7496 24 36.2696 24ZM36.2696 22.375C33.3446 22.375 30.9746 28.42 30.9746 35.875C30.9746 43.33 33.3446 49.375 36.2696 49.375C39.1946 49.375 41.5646 43.33 41.5646 35.875C41.5646 28.42 39.1946 22.375 36.2696 22.375Z" fill="#062B31"/>
<path d="M36 24C38.3487 24 40.6446 24.6965 42.5974 26.0013C44.5502 27.3061 46.0723 29.1608 46.9711 31.3306C47.8699 33.5005 48.105 35.8882 47.6468 38.1917C47.1886 40.4952 46.0576 42.6111 44.3969 44.2719C42.7361 45.9326 40.6202 47.0636 38.3167 47.5218C36.0132 47.98 33.6255 47.7449 31.4556 46.8461C29.2858 45.9473 27.4311 44.4252 26.1263 42.4724C24.8215 40.5196 24.125 38.2237 24.125 35.875C24.1283 32.7266 25.3805 29.708 27.6068 27.4818C29.833 25.2555 32.8516 24.0033 36 24ZM36 22.375C33.33 22.375 30.7199 23.1668 28.4998 24.6502C26.2797 26.1336 24.5494 28.242 23.5276 30.7088C22.5058 33.1756 22.2385 35.89 22.7594 38.5087C23.2803 41.1275 24.5661 43.5329 26.4541 45.4209C28.3421 47.309 30.7475 48.5947 33.3663 49.1156C35.985 49.6365 38.6994 49.3692 41.1662 48.3474C43.633 47.3256 45.7414 45.5953 47.2248 43.3752C48.7082 41.1551 49.5 38.545 49.5 35.875C49.5 32.2946 48.0777 28.8608 45.5459 26.3291C43.0142 23.7973 39.5804 22.375 36 22.375Z" fill="#062B31"/>
<path d="M24.415 40.0925H48.125" stroke="#062B31" stroke-width="2" stroke-miterlimit="10"/>
<path d="M24 32H47.71" stroke="#062B31" stroke-width="2" stroke-miterlimit="10"/>
</svg>
