<svg width="48" height="48" viewBox="0 0 48 48" fill="none" xmlns="http://www.w3.org/2000/svg">
<path d="M24 48C10.7455 48 0 37.2548 0 23.9996C0 10.7453 10.7455 0 24 0C37.255 0 48 10.7453 48 23.9996C48 37.2548 37.2549 48 24 48Z" fill="#5FD4AF"/>
<path d="M35.5529 23.3554H34.8994V20.5055C34.897 18.9995 33.6748 17.7782 32.1691 17.7744H15.1779C13.6719 17.7782 12.4501 18.9995 12.4473 20.5055V33.3159C12.4501 34.822 13.6719 36.0445 15.1779 36.0465H32.1691C33.6748 36.0445 34.8969 34.822 34.8994 33.3159V30.5426L34.81 30.3477H35.5529V23.3554Z" fill="#4F5A69"/>
<path d="M32.6748 30.3479H33.4834V33.316C33.4827 34.0347 32.8874 34.6288 32.1694 34.63H15.1782C14.4602 34.6288 13.8641 34.0347 13.8633 33.316V20.5056C13.8641 19.7872 14.4602 19.1919 15.1782 19.1907H32.1694C32.8874 19.1919 33.4826 19.7872 33.4834 20.5056V23.3555H28.7413C26.8106 23.3568 25.2459 24.9206 25.245 26.8525C25.2459 28.7831 26.8106 30.3469 28.7413 30.3478H32.2703" fill="#A8B6C0"/>
<path d="M28.7416 28.9324H34.1377V24.7712H28.7416C27.5928 24.7741 26.664 25.7029 26.6611 26.8524C26.664 28.0008 27.5928 28.9295 28.7416 28.9324Z" fill="white"/>
<path d="M15.0766 25.9778H14.673V24.5633H15.0766V25.9778ZM15.0766 26.5845H14.673V28.0007H15.0766V26.5845ZM15.0766 28.6067H14.673V30.0241H15.0766V28.6067ZM15.0766 30.6304H14.673V32.0457H15.0766V30.6304ZM15.0766 32.6751V32.6522H14.673V32.6751C14.673 33.2634 15.0968 33.752 15.6547 33.8648L15.7351 33.4682C15.3601 33.3931 15.075 33.0624 15.0766 32.6751ZM31.4483 33.4846H30.4584V33.8891H31.4483C31.6239 33.8891 31.7925 33.8518 31.9439 33.7849L31.7814 33.4144C31.6789 33.4587 31.5665 33.4846 31.4483 33.4846ZM32.2697 32.6751C32.2697 32.8323 32.2246 32.9779 32.1458 33.101L32.4871 33.3188C32.6041 33.1326 32.6743 32.9106 32.6743 32.6751V31.8243H32.2698V32.6751H32.2697ZM16.9523 19.9324H15.8979C15.7486 19.9324 15.6062 19.9594 15.4737 20.0078L15.6127 20.3877V20.3873C15.7022 20.355 15.7973 20.3373 15.8978 20.3373H16.9522V19.9324H16.9523ZM26.4128 33.889H27.8294V33.4845H26.4128V33.889ZM15.0766 22.5395H14.673V23.9553H15.0766V22.5395ZM28.4358 33.889H29.8512V33.4845H28.4358V33.889ZM15.0766 21.1467C15.0766 20.9711 15.1337 20.8107 15.2301 20.6773L14.9031 20.4386C14.7587 20.6371 14.6717 20.8832 14.6729 21.1467V21.9331H15.0765V21.1467H15.0766ZM29.0885 19.9324H27.6727V20.3373H29.0885V19.9324ZM25.0426 19.9324H23.6276V20.3373H25.0426V19.9324ZM24.3907 33.889H25.8066V33.4845H24.3907V33.889V33.889ZM27.0664 19.9324H25.6489V20.3373H27.0664V19.9324ZM32.2697 23.2562H32.6742V21.84H32.2697V23.2562ZM31.7679 19.9742L31.6616 20.3652H31.6624C32.0112 20.46 32.2709 20.7767 32.2696 21.1468V21.2341H32.6741V21.1468C32.6733 20.5846 32.2877 20.1141 31.7679 19.9742ZM31.1103 19.9324H29.6957V20.3373H31.1103V19.9324ZM18.3225 33.889H19.7383V33.4845H18.3225V33.889ZM20.9974 19.9324H19.5816V20.3373H20.9974V19.9324ZM16.3 33.889H17.7158V33.4845H16.3V33.889ZM18.9749 19.9324H17.5583V20.3373H18.9749V19.9324H18.9749ZM23.0204 19.9324H21.6038V20.3373H23.0204V19.9324ZM20.3447 33.889H21.7613V33.4845H20.3447V33.889ZM22.3677 33.889H23.7831V33.4845H22.3677V33.889ZM32.6742 30.3478V31.2179H32.2697V30.3478" fill="white"/>
<path d="M28.9901 25.6167C28.3083 25.6167 27.7549 26.1698 27.7549 26.8515C27.7549 27.5338 28.3083 28.0868 28.9901 28.0868C29.672 28.0868 30.2262 27.5337 30.2262 26.8515C30.2262 26.1698 29.672 25.6167 28.9901 25.6167Z" fill="#59616A"/>
<path d="M27.9477 12.4904C27.7664 12.0494 27.2564 11.8377 26.8154 12.019L15.3762 16.734C15.2306 16.7943 15.1133 16.8924 15.0234 17.0097H29.8111L27.9477 12.4904Z" fill="#4F5A69"/>
</svg>
