<svg width="53" height="53" viewBox="0 0 53 53" fill="none" xmlns="http://www.w3.org/2000/svg">
<path d="M26.5 29.8125C31.0736 29.8125 34.7812 26.1049 34.7812 21.5312C34.7812 16.9576 31.0736 13.25 26.5 13.25C21.9264 13.25 18.2188 16.9576 18.2188 21.5312C18.2188 26.1049 21.9264 29.8125 26.5 29.8125Z" stroke="#5FD4AF" stroke-width="2" stroke-linecap="round" stroke-linejoin="round"/>
<path d="M38.0938 46.375C38.0938 43.3001 36.8723 40.3512 34.698 38.177C32.5238 36.0027 29.5749 34.7813 26.5 34.7812C23.4251 34.7813 20.4762 36.0027 18.302 38.177C16.1277 40.3512 14.9063 43.3001 14.9062 46.375H38.0938Z" stroke="#5FD4AF" stroke-width="2" stroke-linecap="round" stroke-linejoin="round"/>
<path d="M39.75 23.1875C41.1616 23.1875 42.5498 22.8267 43.7827 22.1393C45.0156 21.4519 46.0523 20.4607 46.7945 19.26C47.5366 18.0592 47.9594 16.6886 48.0229 15.2785C48.0863 13.8683 47.7883 12.4653 47.157 11.2028C46.5257 9.9402 45.5821 8.85995 44.4159 8.06461C43.2497 7.26927 41.8996 6.78523 40.4937 6.65846C39.0878 6.5317 37.6729 6.7664 36.3832 7.3403C35.0935 7.91419 33.972 8.80823 33.125 9.9375" stroke="#5FD4AF" stroke-width="2" stroke-linecap="round" stroke-linejoin="round"/>
<path d="M41.4062 39.75H51.3438C51.3438 36.6751 50.1223 33.7262 47.948 31.552C45.7738 29.3777 42.8249 28.1563 39.75 28.1562" stroke="#5FD4AF" stroke-width="2" stroke-linecap="round" stroke-linejoin="round"/>
<path d="M19.875 9.9375C19.028 8.80823 17.9065 7.91419 16.6168 7.3403C15.3271 6.7664 13.9122 6.5317 12.5063 6.65846C11.1004 6.78523 9.75026 7.26927 8.58405 8.06461C7.41785 8.85995 6.47431 9.9402 5.84303 11.2028C5.21174 12.4653 4.91367 13.8683 4.97712 15.2785C5.04057 16.6886 5.46343 18.0592 6.20555 19.26C6.94767 20.4607 7.98441 21.4519 9.21733 22.1393C10.4502 22.8267 11.8384 23.1875 13.25 23.1875" stroke="#5FD4AF" stroke-width="2" stroke-linecap="round" stroke-linejoin="round"/>
<path d="M13.25 28.1562C10.1751 28.1562 7.22623 29.3777 5.05198 31.552C2.87773 33.7262 1.65625 36.6751 1.65625 39.75H11.5938" stroke="#5FD4AF" stroke-width="2" stroke-linecap="round" stroke-linejoin="round"/>
</svg>
