<svg width="72" height="72" viewBox="0 0 72 72" fill="none" xmlns="http://www.w3.org/2000/svg">
<circle cx="36" cy="36" r="35.5" fill="white" stroke="black"/>
<path d="M36 38C38.7614 38 41 35.7614 41 33C41 30.2386 38.7614 28 36 28C33.2386 28 31 30.2386 31 33C31 35.7614 33.2386 38 36 38Z" stroke="black" stroke-width="2" stroke-linecap="round" stroke-linejoin="round"/>
<path d="M43 48C43 46.1435 42.2625 44.363 40.9497 43.0503C39.637 41.7375 37.8565 41 36 41C34.1435 41 32.363 41.7375 31.0503 43.0503C29.7375 44.363 29 46.1435 29 48H43Z" stroke="black" stroke-width="2" stroke-linecap="round" stroke-linejoin="round"/>
<path d="M44 34C44.8523 34 45.6904 33.7821 46.4348 33.3671C47.1792 32.9521 47.8052 32.3537 48.2533 31.6287C48.7013 30.9037 48.9566 30.0762 48.9949 29.2247C49.0333 28.3733 48.8533 27.5262 48.4721 26.7639C48.091 26.0016 47.5213 25.3494 46.8172 24.8692C46.1131 24.389 45.2979 24.0967 44.449 24.0202C43.6002 23.9437 42.7459 24.0854 41.9672 24.4319C41.1885 24.7784 40.5114 25.3182 40 26" stroke="black" stroke-width="2" stroke-linecap="round" stroke-linejoin="round"/>
<path d="M45 44H51C51 42.1435 50.2625 40.363 48.9497 39.0503C47.637 37.7375 45.8565 37 44 37" stroke="black" stroke-width="2" stroke-linecap="round" stroke-linejoin="round"/>
<path d="M32 26C31.4886 25.3182 30.8115 24.7784 30.0328 24.4319C29.2541 24.0854 28.3998 23.9437 27.551 24.0202C26.7021 24.0967 25.8869 24.389 25.1828 24.8692C24.4787 25.3494 23.909 26.0016 23.5279 26.7639C23.1467 27.5262 22.9667 28.3733 23.0051 29.2247C23.0434 30.0762 23.2987 30.9037 23.7467 31.6287C24.1948 32.3537 24.8208 32.9521 25.5652 33.3671C26.3096 33.7821 27.1477 34 28 34" stroke="black" stroke-width="2" stroke-linecap="round" stroke-linejoin="round"/>
<path d="M28 37C26.1435 37 24.363 37.7375 23.0503 39.0503C21.7375 40.363 21 42.1435 21 44H27" stroke="black" stroke-width="2" stroke-linecap="round" stroke-linejoin="round"/>
</svg>
